.::::JOIN  http://www.SceneTime.com    Sign up is OPEN for now!::::....

....::::JOIN  http://www.SceneTime.com   Sign up is OPEN for now!::::....

.....:::::JOIN  http://www.SceneTime.com   Sign up is OPEN for now!::::....

......::::::JOIN  http://www.SceneTime.com   Sign up is OPEN for now!::::....


**********************************************************************************

Love for All and Sharing is the first step to solving all the problems of humanity.

Website I want to share.
             
                           
http://SceneTime.com


- Latest Releases
- Super Fast Speeds
- Good Community
- Competitions with prizes (yay)
- Love for the Scene


Credit to EVERYONE for sharing and seeding back
especially to SceneTime where i get all my
downloads.

For more info about this release, open .NFO file with notepad !!!
Support scenetime to grow faster.

*************************************************************************************

....::::JOIN   http://www.SceneTime.com    Sign up is OPEN for now!::::....
....::::JOIN   http://www.SceneTime.com    Sign up is OPEN for now!::::....




IMDB Link - http://www.imdb.com/title/tt2083294/

Source - Picture.Day.2013.DVDR-SKA (Thumbs Up + Respect)

NOTES - If you're going to do it, do it right first time, quality before speed! Lots of work required on this the dvdr was so flat and lifeless, required alot of tlc and filtering.

General
Complete name                            : Picture Day 2013 DVDRip 6CH AAC x264-SSDD (HQ).mp4
Format                                   : MPEG-4
Format profile                           : Base Media
Codec ID                                 : isom
File size                                : 2.20 GiB
Duration                                 : 1h 30mn
Overall bit rate mode                    : Variable
Overall bit rate                         : 3 481 Kbps

Video
ID                                       : 1
Format                                   : AVC
Format/Info                              : Advanced Video Codec
Format profile                           : High@L4.1
Format settings, CABAC                   : Yes
Format settings, ReFrames                : 4 frames
Codec ID                                 : avc1
Codec ID/Info                            : Advanced Video Coding
Duration                                 : 1h 30mn
Bit rate                                 : 3 029 Kbps
Maximum bit rate                         : 7 425 Kbps
Width                                    : 720 pixels
Height                                   : 400 pixels
Display aspect ratio                     : 16:9
Frame rate mode                          : Constant
Frame rate                               : 23.976 fps
Color space                              : YUV
Chroma subsampling                       : 4:2:0
Bit depth                                : 8 bits
Scan type                                : Progressive
Bits/(Pixel*Frame)                       : 0.439
Stream size                              : 1.91 GiB (87%)
Writing library                          : x264 core 130 r2273 b3065e6

Audio
ID                                       : 2
Format                                   : AAC
Format/Info                              : Advanced Audio Codec
Format profile                           : LC
Codec ID                                 : 40
Duration                                 : 1h 30mn
Bit rate mode                            : Variable
Bit rate                                 : 448 Kbps
Maximum bit rate                         : 463 Kbps
Channel(s)                               : 6 channels
Channel positions                        : Front: L C R, Side: L R, LFE
Sampling rate                            : 48.0 KHz
Compression mode                         : Lossy
Stream size                              : 290 MiB (13%)
